           HouseFull - 2013 - DVDRip - Xvid - ESubs - 1xCD [TMT] 


       http://img822.imageshack.us/img822/2028/housefulldvdcover.jpg






Screens:
 
http://imageshack.us/a/img46/1571/housefull2013dvdripxvid.png
 
http://imageshack.us/a/img521/1571/housefull2013dvdripxvid.png
 
http://imageshack.us/a/img845/5714/housefull2013dvdripxvidh.png
 
http://imageshack.us/a/img12/1571/housefull2013dvdripxvid.png
 
http://imageshack.us/a/img692/1571/housefull2013dvdripxvid.png
 
http://imageshack.us/a/img35/1571/housefull2013dvdripxvid.png
 
http://imageshack.us/a/img62/1571/housefull2013dvdripxvid.png
 
http://imageshack.us/a/img803/1571/housefull2013dvdripxvid.png
 
http://imageshack.us/a/img515/1571/housefull2013dvdripxvid.png







                ::: Ripping Info :::



Video
ID : 0
Format : FLV
Format profile : Advanced Simple@L5
Format settings, BVOP : 2
Format settings, QPel : Yes
Format settings, GMC : No warppoints
Format settings, Matrix : Default (H.263)
Codec ID : FLV
Codec ID/Hint : FLV
Duration : 2h 6mn
Bit rate : 705 Kbps
Width : 608 pixels
Height : 256 pixels
Display aspect ratio : 2.40:1
Frame rate : 29.970 fps
Color space : YUV
Chroma subsampling : 4:2:0
Bit depth : 8 bits
Scan type : Progressive
Compression mode : Lossy
Bits/(Pixel*Frame) : 0.151
Stream size : 636 MiB (92%)
Writing library : XviD 1.2.1 (UTC 2008-12-04)

Audio
ID : 1
Format : MPEG Audio
Format version : Version 2
Format profile : Layer 3
Mode : Joint stereo
Mode extension : MS Stereo
Codec ID : 55
Codec ID/Hint : MP3
Duration : 2h 6mn
Bit rate mode : Constant
Bit rate : 56.0 Kbps
Channel(s) : 2 channels
Sampling rate : 24.0 KHz
Compression mode : Lossy
Stream size : 50.5 MiB (7%)

